<svg xmlns="http://www.w3.org/2000/svg" width="445.582" height="78" viewBox="0 0 445.582 78">
  <g id="グループ_291" data-name="グループ 291" transform="translate(-366.752 -816.5)">
    <g id="グループ_290" data-name="グループ 290" transform="matrix(0.978, -0.208, 0.208, 0.978, -178.448, 106.359)">
      <path id="パス_224" data-name="パス 224" d="M0,0H31.9" transform="translate(386.051 829.5)" fill="none" stroke="#4e7482" stroke-linecap="round" stroke-width="7"/>
      <path id="パス_225" data-name="パス 225" d="M0,0H18.485l9.364-9.11L36.736-.464,25.46,10.507" transform="translate(418.542 829.836) rotate(45)" fill="none" stroke="#4e7482" stroke-linecap="round" stroke-linejoin="round" stroke-width="7"/>
      <path id="パス_227" data-name="パス 227" d="M0,0H6.079" transform="translate(406.834 841.5)" fill="none" stroke="#4e7482" stroke-linecap="round" stroke-width="7"/>
      <path id="パス_228" data-name="パス 228" d="M0,0H18.877" transform="translate(413.469 841.763) rotate(45)" fill="none" stroke="#4e7482" stroke-linecap="round" stroke-width="7"/>
      <path id="パス_229" data-name="パス 229" d="M0,0H14.416" transform="translate(427.362 855.5)" fill="none" stroke="#4e7482" stroke-linecap="round" stroke-width="7"/>
      <path id="パス_224-2" data-name="パス 224" d="M0,0H31.862" transform="translate(444.815 878.12) rotate(180)" fill="none" stroke="#4e7482" stroke-linecap="round" stroke-width="7"/>
      <path id="パス_225-2" data-name="パス 225" d="M0,0H18.551l9.4-9.11L36.868-.464,25.551,10.507" transform="translate(412.415 877.875) rotate(-135)" fill="none" stroke="#4e7482" stroke-linecap="round" stroke-linejoin="round" stroke-width="7"/>
      <path id="パス_227-2" data-name="パス 227" d="M0,0H6.079" transform="translate(424.032 866.12) rotate(180)" fill="none" stroke="#4e7482" stroke-linecap="round" stroke-width="7"/>
      <path id="パス_228-2" data-name="パス 228" d="M0,0H19.169" transform="translate(417.447 865.907) rotate(-135)" fill="none" stroke="#4e7482" stroke-linecap="round" stroke-width="7"/>
      <path id="パス_229-2" data-name="パス 229" d="M0,0H14.27" transform="translate(403.357 852.12) rotate(180)" fill="none" stroke="#4e7482" stroke-linecap="round" stroke-width="7"/>
    </g>
    <text id="Hoshimoto_" data-name="Hoshimoto     " transform="translate(448.334 879.5)" fill="#4e7482" stroke="#4e7482" stroke-width="1" font-size="64" font-family="'\.AppleSystemUIFont'"><tspan x="0" y="0" xml:space="preserve">Hoshimoto     </tspan></text>
  </g>
</svg>
